<svg xmlns="http://www.w3.org/2000/svg" xmlns:xlink="http://www.w3.org/1999/xlink" width="300" zoomAndPan="magnify" viewBox="0 0 224.87999 225" height="300" preserveAspectRatio="xMidYMid meet" version="1.0"><defs><g/></defs><g fill="#000000" fill-opacity="1"><g transform="translate(17.802106, 179.707952)"><g><path d="M 73.21875 -131.40625 C 85.101562 -131.40625 95.425781 -129.4375 104.1875 -125.5 C 112.945312 -121.5625 119.707031 -115.929688 124.46875 -108.609375 C 129.226562 -101.285156 131.609375 -92.679688 131.609375 -82.796875 C 131.609375 -72.898438 129.226562 -64.320312 124.46875 -57.0625 C 119.707031 -49.8125 112.945312 -44.210938 104.1875 -40.265625 C 95.425781 -36.328125 85.101562 -34.359375 73.21875 -34.359375 L 50.3125 -34.359375 L 50.3125 0 L 13.140625 0 L 13.140625 -131.40625 Z M 70.96875 -63.640625 C 78.601562 -63.640625 84.359375 -65.296875 88.234375 -68.609375 C 92.117188 -71.929688 94.0625 -76.660156 94.0625 -82.796875 C 94.0625 -88.921875 92.117188 -93.671875 88.234375 -97.046875 C 84.359375 -100.429688 78.601562 -102.125 70.96875 -102.125 L 50.3125 -102.125 L 50.3125 -63.640625 Z M 70.96875 -63.640625 "/></g></g></g><g fill="#000000" fill-opacity="1"><g transform="translate(156.153331, 179.707952)"><g><path d="M 26.46875 1.6875 C 20.457031 1.6875 15.382812 -0.3125 11.25 -4.3125 C 7.125 -8.320312 5.0625 -13.394531 5.0625 -19.53125 C 5.0625 -25.78125 7.09375 -30.84375 11.15625 -34.71875 C 15.226562 -38.601562 20.332031 -40.546875 26.46875 -40.546875 C 32.726562 -40.546875 37.859375 -38.601562 41.859375 -34.71875 C 45.867188 -30.84375 47.875 -25.78125 47.875 -19.53125 C 47.875 -13.394531 45.835938 -8.320312 41.765625 -4.3125 C 37.703125 -0.3125 32.601562 1.6875 26.46875 1.6875 Z M 26.46875 1.6875 "/></g></g></g></svg>